<mxfile host="app.diagrams.net" modified="2021-12-21T10:19:16.510Z" agent="5.0 (Windows NT 10.0; Win64; x64) AppleWebKit/537.36 (KHTML, like Gecko) Chrome/96.0.4664.110 Safari/537.36 Edg/96.0.1054.62" etag="VlP9J0OZ9bXCANJMkAvk" version="14.7.0" type="github">
  <diagram id="I8VxO7Kpn2xeJGVyplOv" name="第 1 页">
    <mxGraphModel dx="2036" dy="1942" grid="1" gridSize="10" guides="1" tooltips="1" connect="1" arrows="1" fold="1" page="1" pageScale="1" pageWidth="827" pageHeight="1169" math="0" shadow="0">
      <root>
        <mxCell id="0" />
        <mxCell id="1" parent="0" />
        <mxCell id="EroGNl9VkCaSBFjSGu0w-1" value="" style="ellipse;whiteSpace=wrap;html=1;gradientColor=#ffffff;strokeWidth=2;" vertex="1" parent="1">
          <mxGeometry x="-130" y="-710" width="1100" height="580" as="geometry" />
        </mxCell>
        <mxCell id="EroGNl9VkCaSBFjSGu0w-3" value="" style="curved=1;endArrow=none;html=1;exitX=0.5;exitY=1;exitDx=0;exitDy=0;endFill=0;entryX=0.5;entryY=0;entryDx=0;entryDy=0;" edge="1" parent="1" source="EroGNl9VkCaSBFjSGu0w-1" target="EroGNl9VkCaSBFjSGu0w-1">
          <mxGeometry width="50" height="50" relative="1" as="geometry">
            <mxPoint x="390" y="-380" as="sourcePoint" />
            <mxPoint x="410" y="-550" as="targetPoint" />
            <Array as="points">
              <mxPoint x="410" y="-250" />
              <mxPoint x="290" y="-355" />
            </Array>
          </mxGeometry>
        </mxCell>
        <mxCell id="EroGNl9VkCaSBFjSGu0w-4" value="" style="curved=1;endArrow=none;html=1;strokeColor=#d79b00;entryX=0.772;entryY=0.077;entryDx=0;entryDy=0;entryPerimeter=0;dashed=1;endFill=0;strokeWidth=2;fillColor=#ffe6cc;" edge="1" parent="1" target="EroGNl9VkCaSBFjSGu0w-1">
          <mxGeometry width="50" height="50" relative="1" as="geometry">
            <mxPoint x="380" y="-580" as="sourcePoint" />
            <mxPoint x="440" y="-430" as="targetPoint" />
            <Array as="points">
              <mxPoint x="440" y="-380" />
              <mxPoint x="580" y="-440" />
            </Array>
          </mxGeometry>
        </mxCell>
        <mxCell id="EroGNl9VkCaSBFjSGu0w-5" value="&lt;font style=&quot;font-size: 24px&quot;&gt;基础设置领域&lt;/font&gt;" style="text;html=1;strokeColor=none;fillColor=none;align=center;verticalAlign=middle;whiteSpace=wrap;rounded=0;dashed=1;" vertex="1" parent="1">
          <mxGeometry x="-40" y="-710" width="180" height="20" as="geometry" />
        </mxCell>
        <mxCell id="EroGNl9VkCaSBFjSGu0w-6" value="&lt;font style=&quot;font-size: 24px&quot;&gt;收款领域&lt;/font&gt;" style="text;html=1;strokeColor=none;fillColor=none;align=center;verticalAlign=middle;whiteSpace=wrap;rounded=0;dashed=1;" vertex="1" parent="1">
          <mxGeometry x="620" y="-740" width="180" height="20" as="geometry" />
        </mxCell>
        <mxCell id="EroGNl9VkCaSBFjSGu0w-9" value="&lt;font&gt;&lt;font style=&quot;font-size: 14px&quot;&gt;客户回款子域&lt;br&gt;（核心）&lt;/font&gt;&lt;br&gt;&lt;/font&gt;" style="text;html=1;strokeColor=none;fillColor=none;align=center;verticalAlign=middle;whiteSpace=wrap;rounded=0;dashed=1;" vertex="1" parent="1">
          <mxGeometry x="460" y="-594" width="130" height="20" as="geometry" />
        </mxCell>
        <mxCell id="EroGNl9VkCaSBFjSGu0w-16" value="" style="curved=1;endArrow=none;html=1;dashed=1;strokeColor=#666666;strokeWidth=2;entryX=1;entryY=0.5;entryDx=0;entryDy=0;endFill=0;exitX=0.922;exitY=0.233;exitDx=0;exitDy=0;exitPerimeter=0;fillColor=#f5f5f5;" edge="1" parent="1" source="EroGNl9VkCaSBFjSGu0w-1" target="EroGNl9VkCaSBFjSGu0w-1">
          <mxGeometry width="50" height="50" relative="1" as="geometry">
            <mxPoint x="820" y="-530" as="sourcePoint" />
            <mxPoint x="440" y="-370" as="targetPoint" />
            <Array as="points">
              <mxPoint x="560" y="-385" />
              <mxPoint x="930" y="-360" />
            </Array>
          </mxGeometry>
        </mxCell>
        <mxCell id="EroGNl9VkCaSBFjSGu0w-17" value="" style="curved=1;endArrow=none;html=1;dashed=1;strokeColor=#3700CC;strokeWidth=2;endFill=0;fillColor=#6a00ff;" edge="1" parent="1">
          <mxGeometry width="50" height="50" relative="1" as="geometry">
            <mxPoint x="750" y="-190" as="sourcePoint" />
            <mxPoint x="730" y="-370" as="targetPoint" />
            <Array as="points">
              <mxPoint x="640" y="-260" />
              <mxPoint x="610" y="-350" />
            </Array>
          </mxGeometry>
        </mxCell>
        <mxCell id="EroGNl9VkCaSBFjSGu0w-18" value="&lt;font&gt;&lt;font style=&quot;font-size: 14px&quot;&gt;网银回款子域&lt;br&gt;(核心)&lt;/font&gt;&lt;br&gt;&lt;/font&gt;" style="text;html=1;strokeColor=none;fillColor=none;align=center;verticalAlign=middle;whiteSpace=wrap;rounded=0;dashed=1;" vertex="1" parent="1">
          <mxGeometry x="770" y="-270" width="120" height="20" as="geometry" />
        </mxCell>
        <mxCell id="EroGNl9VkCaSBFjSGu0w-20" value="&lt;font&gt;&lt;font style=&quot;font-size: 14px&quot;&gt;附件子域&lt;br&gt;（通用）&lt;/font&gt;&lt;br&gt;&lt;/font&gt;" style="text;html=1;strokeColor=none;fillColor=none;align=center;verticalAlign=middle;whiteSpace=wrap;rounded=0;dashed=1;" vertex="1" parent="1">
          <mxGeometry x="680" y="-604" width="130" height="20" as="geometry" />
        </mxCell>
        <mxCell id="EroGNl9VkCaSBFjSGu0w-21" value="&lt;font&gt;&lt;font style=&quot;font-size: 14px&quot;&gt;操作日志子域&lt;br&gt;（通用）&lt;/font&gt;&lt;br&gt;&lt;/font&gt;" style="text;html=1;strokeColor=none;fillColor=none;align=center;verticalAlign=middle;whiteSpace=wrap;rounded=0;dashed=1;" vertex="1" parent="1">
          <mxGeometry x="300" y="-340" width="160" height="20" as="geometry" />
        </mxCell>
        <mxCell id="EroGNl9VkCaSBFjSGu0w-22" value="" style="curved=1;endArrow=none;html=1;dashed=1;strokeColor=#2D7600;strokeWidth=2;endFill=0;fillColor=#60a917;" edge="1" parent="1" target="EroGNl9VkCaSBFjSGu0w-1">
          <mxGeometry width="50" height="50" relative="1" as="geometry">
            <mxPoint x="350" y="-480" as="sourcePoint" />
            <mxPoint x="440" y="-440" as="targetPoint" />
            <Array as="points">
              <mxPoint x="280" y="-370" />
              <mxPoint x="177" y="-460" />
              <mxPoint x="80" y="-560" />
            </Array>
          </mxGeometry>
        </mxCell>
        <mxCell id="EroGNl9VkCaSBFjSGu0w-23" value="&lt;font style=&quot;font-size: 14px&quot;&gt;会计科目&lt;br&gt;（核心）&lt;/font&gt;" style="text;html=1;strokeColor=none;fillColor=none;align=center;verticalAlign=middle;whiteSpace=wrap;rounded=0;dashed=1;" vertex="1" parent="1">
          <mxGeometry x="170" y="-650" width="90" height="20" as="geometry" />
        </mxCell>
        <mxCell id="EroGNl9VkCaSBFjSGu0w-24" value="" style="curved=1;endArrow=none;html=1;dashed=1;strokeColor=#3700CC;strokeWidth=2;endFill=0;fillColor=#6a00ff;" edge="1" parent="1">
          <mxGeometry width="50" height="50" relative="1" as="geometry">
            <mxPoint x="570" y="-140" as="sourcePoint" />
            <mxPoint x="630" y="-290" as="targetPoint" />
            <Array as="points">
              <mxPoint x="570" y="-180" />
              <mxPoint x="510" y="-250" />
              <mxPoint x="500" y="-340" />
            </Array>
          </mxGeometry>
        </mxCell>
        <mxCell id="EroGNl9VkCaSBFjSGu0w-25" value="&lt;font&gt;&lt;font style=&quot;font-size: 14px&quot;&gt;新零售回款子域&lt;br&gt;（核心）&lt;/font&gt;&lt;br&gt;&lt;/font&gt;" style="text;html=1;strokeColor=none;fillColor=none;align=center;verticalAlign=middle;whiteSpace=wrap;rounded=0;dashed=1;" vertex="1" parent="1">
          <mxGeometry x="570" y="-190" width="130" height="20" as="geometry" />
        </mxCell>
        <mxCell id="EroGNl9VkCaSBFjSGu0w-29" value="&lt;font&gt;&lt;font style=&quot;font-size: 14px&quot;&gt;核算项目&lt;br&gt;（核心）&lt;/font&gt;&lt;br&gt;&lt;/font&gt;" style="text;html=1;strokeColor=none;fillColor=none;align=center;verticalAlign=middle;whiteSpace=wrap;rounded=0;dashed=1;" vertex="1" parent="1">
          <mxGeometry x="-130" y="-470" width="90" height="20" as="geometry" />
        </mxCell>
        <mxCell id="EroGNl9VkCaSBFjSGu0w-32" style="edgeStyle=orthogonalEdgeStyle;rounded=0;orthogonalLoop=1;jettySize=auto;html=1;exitX=0.5;exitY=1;exitDx=0;exitDy=0;dashed=1;endArrow=none;endFill=0;strokeColor=#000000;strokeWidth=2;" edge="1" parent="1" source="EroGNl9VkCaSBFjSGu0w-18" target="EroGNl9VkCaSBFjSGu0w-18">
          <mxGeometry relative="1" as="geometry" />
        </mxCell>
        <mxCell id="EroGNl9VkCaSBFjSGu0w-36" value="" style="curved=1;endArrow=none;html=1;dashed=1;strokeColor=#006EAF;strokeWidth=2;exitX=0.016;exitY=0.639;exitDx=0;exitDy=0;exitPerimeter=0;endFill=0;fillColor=#1ba1e2;" edge="1" parent="1" source="EroGNl9VkCaSBFjSGu0w-1">
          <mxGeometry width="50" height="50" relative="1" as="geometry">
            <mxPoint x="390" y="-270" as="sourcePoint" />
            <mxPoint x="220" y="-430" as="targetPoint" />
            <Array as="points">
              <mxPoint x="170" y="-330" />
            </Array>
          </mxGeometry>
        </mxCell>
        <mxCell id="EroGNl9VkCaSBFjSGu0w-37" value="&lt;font&gt;&lt;font style=&quot;font-size: 14px&quot;&gt;支付方式&lt;br&gt;（核心）&lt;/font&gt;&lt;br&gt;&lt;/font&gt;" style="text;html=1;strokeColor=none;fillColor=none;align=center;verticalAlign=middle;whiteSpace=wrap;rounded=0;dashed=1;" vertex="1" parent="1">
          <mxGeometry x="180" y="-210" width="90" height="20" as="geometry" />
        </mxCell>
        <mxCell id="EroGNl9VkCaSBFjSGu0w-38" value="" style="curved=1;endArrow=none;html=1;dashed=1;strokeColor=#6c8ebf;strokeWidth=2;endFill=0;fillColor=#dae8fc;" edge="1" parent="1">
          <mxGeometry width="50" height="50" relative="1" as="geometry">
            <mxPoint x="680" y="-420" as="sourcePoint" />
            <mxPoint x="510" y="-410" as="targetPoint" />
            <Array as="points">
              <mxPoint x="640" y="-380" />
              <mxPoint x="610" y="-370" />
              <mxPoint x="550" y="-380" />
            </Array>
          </mxGeometry>
        </mxCell>
        <mxCell id="EroGNl9VkCaSBFjSGu0w-40" value="" style="curved=1;endArrow=none;html=1;dashed=1;strokeColor=#6F0000;strokeWidth=2;endFill=0;fillColor=#a20025;" edge="1" parent="1">
          <mxGeometry width="50" height="50" relative="1" as="geometry">
            <mxPoint x="380" y="-280" as="sourcePoint" />
            <mxPoint x="530" y="-230" as="targetPoint" />
            <Array as="points">
              <mxPoint x="440" y="-300" />
              <mxPoint x="490" y="-300" />
            </Array>
          </mxGeometry>
        </mxCell>
        <mxCell id="EroGNl9VkCaSBFjSGu0w-41" value="&lt;font&gt;&lt;font style=&quot;font-size: 14px&quot;&gt;审批子域&lt;br&gt;（核心）&lt;/font&gt;&lt;br&gt;&lt;/font&gt;" style="text;html=1;strokeColor=none;fillColor=none;align=center;verticalAlign=middle;whiteSpace=wrap;rounded=0;dashed=1;" vertex="1" parent="1">
          <mxGeometry x="440" y="-170" width="130" height="20" as="geometry" />
        </mxCell>
        <mxCell id="EroGNl9VkCaSBFjSGu0w-44" value="&lt;font style=&quot;font-size: 14px&quot;&gt;回款子域&lt;br&gt;（核心）&lt;/font&gt;" style="text;html=1;strokeColor=none;fillColor=none;align=center;verticalAlign=middle;whiteSpace=wrap;rounded=0;dashed=1;" vertex="1" parent="1">
          <mxGeometry x="860" y="-500" width="90" height="20" as="geometry" />
        </mxCell>
        <mxCell id="EroGNl9VkCaSBFjSGu0w-51" value="" style="curved=1;endArrow=none;html=1;strokeColor=#d79b00;strokeWidth=2;endFill=0;fillColor=#ffe6cc;" edge="1" parent="1">
          <mxGeometry width="50" height="50" relative="1" as="geometry">
            <mxPoint x="439" y="-490" as="sourcePoint" />
            <mxPoint x="439" y="-490" as="targetPoint" />
            <Array as="points">
              <mxPoint x="445" y="-480" />
              <mxPoint x="475" y="-470" />
              <mxPoint x="505" y="-470" />
              <mxPoint x="545" y="-480" />
              <mxPoint x="565" y="-500" />
              <mxPoint x="565" y="-520" />
              <mxPoint x="555" y="-550" />
              <mxPoint x="425" y="-540" />
            </Array>
          </mxGeometry>
        </mxCell>
        <mxCell id="EroGNl9VkCaSBFjSGu0w-52" value="" style="curved=1;endArrow=none;html=1;strokeColor=#000000;strokeWidth=2;endFill=0;" edge="1" parent="1">
          <mxGeometry width="50" height="50" relative="1" as="geometry">
            <mxPoint x="175" y="-260" as="sourcePoint" />
            <mxPoint x="175" y="-260" as="targetPoint" />
            <Array as="points">
              <mxPoint x="225" y="-240" />
              <mxPoint x="305" y="-290" />
              <mxPoint x="245" y="-340" />
              <mxPoint x="145" y="-310" />
            </Array>
          </mxGeometry>
        </mxCell>
        <mxCell id="EroGNl9VkCaSBFjSGu0w-53" value="" style="curved=1;endArrow=none;html=1;strokeColor=#2D7600;strokeWidth=2;endFill=0;fillColor=#60a917;" edge="1" parent="1">
          <mxGeometry width="50" height="50" relative="1" as="geometry">
            <mxPoint x="220" y="-500" as="sourcePoint" />
            <mxPoint x="220" y="-500" as="targetPoint" />
            <Array as="points">
              <mxPoint x="260" y="-480" />
              <mxPoint x="340" y="-530" />
              <mxPoint x="280" y="-580" />
              <mxPoint x="180" y="-550" />
            </Array>
          </mxGeometry>
        </mxCell>
        <mxCell id="EroGNl9VkCaSBFjSGu0w-55" value="&lt;font&gt;&lt;font style=&quot;font-size: 14px&quot;&gt;客户回款上下文&lt;/font&gt;&lt;br&gt;&lt;/font&gt;" style="text;html=1;strokeColor=none;fillColor=none;align=center;verticalAlign=middle;whiteSpace=wrap;rounded=0;dashed=1;" vertex="1" parent="1">
          <mxGeometry x="430" y="-520" width="130" height="20" as="geometry" />
        </mxCell>
        <mxCell id="EroGNl9VkCaSBFjSGu0w-56" value="" style="curved=1;endArrow=none;html=1;strokeColor=#006EAF;strokeWidth=2;endFill=0;fillColor=#1ba1e2;" edge="1" parent="1">
          <mxGeometry width="50" height="50" relative="1" as="geometry">
            <mxPoint x="440" y="-400" as="sourcePoint" />
            <mxPoint x="440" y="-400" as="targetPoint" />
            <Array as="points">
              <mxPoint x="430" y="-370" />
              <mxPoint x="440" y="-260" />
              <mxPoint x="610" y="-310" />
              <mxPoint x="740" y="-390" />
              <mxPoint x="620" y="-440" />
              <mxPoint x="514" y="-440" />
              <mxPoint x="450" y="-420" />
            </Array>
          </mxGeometry>
        </mxCell>
        <mxCell id="EroGNl9VkCaSBFjSGu0w-57" value="" style="curved=1;endArrow=none;html=1;strokeColor=#666666;strokeWidth=2;endFill=0;fillColor=#f5f5f5;" edge="1" parent="1">
          <mxGeometry width="50" height="50" relative="1" as="geometry">
            <mxPoint x="614" y="-500" as="sourcePoint" />
            <mxPoint x="614" y="-500" as="targetPoint" />
            <Array as="points">
              <mxPoint x="620" y="-490" />
              <mxPoint x="650" y="-480" />
              <mxPoint x="710" y="-460" />
              <mxPoint x="790" y="-480" />
              <mxPoint x="760" y="-560" />
              <mxPoint x="640" y="-560" />
              <mxPoint x="610" y="-540" />
            </Array>
          </mxGeometry>
        </mxCell>
        <mxCell id="EroGNl9VkCaSBFjSGu0w-58" value="&lt;font&gt;&lt;font style=&quot;font-size: 14px&quot;&gt;附件上下文&lt;/font&gt;&lt;br&gt;&lt;/font&gt;" style="text;html=1;strokeColor=none;fillColor=none;align=center;verticalAlign=middle;whiteSpace=wrap;rounded=0;dashed=1;" vertex="1" parent="1">
          <mxGeometry x="620" y="-530" width="130" height="20" as="geometry" />
        </mxCell>
        <mxCell id="EroGNl9VkCaSBFjSGu0w-60" value="" style="curved=1;endArrow=none;html=1;strokeColor=#6c8ebf;strokeWidth=2;endFill=0;fillColor=#dae8fc;" edge="1" parent="1">
          <mxGeometry width="50" height="50" relative="1" as="geometry">
            <mxPoint x="764" y="-420" as="sourcePoint" />
            <mxPoint x="764" y="-420" as="targetPoint" />
            <Array as="points">
              <mxPoint x="764" y="-410" />
              <mxPoint x="790" y="-400" />
              <mxPoint x="870" y="-400" />
              <mxPoint x="880" y="-420" />
              <mxPoint x="870" y="-450" />
              <mxPoint x="860" y="-460" />
              <mxPoint x="760" y="-460" />
            </Array>
          </mxGeometry>
        </mxCell>
        <mxCell id="EroGNl9VkCaSBFjSGu0w-61" value="&lt;font style=&quot;font-size: 14px&quot;&gt;回款上下文&lt;/font&gt;" style="text;html=1;strokeColor=none;fillColor=none;align=center;verticalAlign=middle;whiteSpace=wrap;rounded=0;dashed=1;" vertex="1" parent="1">
          <mxGeometry x="780" y="-440" width="90" height="20" as="geometry" />
        </mxCell>
        <mxCell id="EroGNl9VkCaSBFjSGu0w-62" value="" style="curved=1;endArrow=none;html=1;strokeColor=#3700CC;strokeWidth=2;endFill=0;fillColor=#6a00ff;" edge="1" parent="1">
          <mxGeometry width="50" height="50" relative="1" as="geometry">
            <mxPoint x="669" y="-280" as="sourcePoint" />
            <mxPoint x="669" y="-280" as="targetPoint" />
            <Array as="points">
              <mxPoint x="685" y="-270" />
              <mxPoint x="705" y="-270" />
              <mxPoint x="735" y="-270" />
              <mxPoint x="775" y="-270" />
              <mxPoint x="795" y="-290" />
              <mxPoint x="795" y="-310" />
              <mxPoint x="775" y="-320" />
              <mxPoint x="745" y="-320" />
              <mxPoint x="665" y="-320" />
            </Array>
          </mxGeometry>
        </mxCell>
        <mxCell id="EroGNl9VkCaSBFjSGu0w-63" value="&lt;font style=&quot;font-size: 14px&quot;&gt;CBS回款上下文&lt;/font&gt;" style="text;html=1;strokeColor=none;fillColor=none;align=center;verticalAlign=middle;whiteSpace=wrap;rounded=0;dashed=1;" vertex="1" parent="1">
          <mxGeometry x="680" y="-310" width="100" height="20" as="geometry" />
        </mxCell>
        <mxCell id="EroGNl9VkCaSBFjSGu0w-64" value="" style="curved=1;endArrow=none;html=1;strokeColor=#001DBC;strokeWidth=2;endFill=0;fillColor=#0050ef;" edge="1" parent="1">
          <mxGeometry width="50" height="50" relative="1" as="geometry">
            <mxPoint x="544" y="-230" as="sourcePoint" />
            <mxPoint x="544" y="-230" as="targetPoint" />
            <Array as="points">
              <mxPoint x="550" y="-220" />
              <mxPoint x="580" y="-210" />
              <mxPoint x="610" y="-210" />
              <mxPoint x="650" y="-220" />
              <mxPoint x="640" y="-250" />
              <mxPoint x="610" y="-270" />
              <mxPoint x="580" y="-270" />
              <mxPoint x="544" y="-260" />
            </Array>
          </mxGeometry>
        </mxCell>
        <mxCell id="EroGNl9VkCaSBFjSGu0w-65" value="&lt;font&gt;&lt;span style=&quot;font-size: 14px&quot;&gt;新零售子域&lt;/span&gt;&lt;br&gt;&lt;/font&gt;" style="text;html=1;strokeColor=none;fillColor=none;align=center;verticalAlign=middle;whiteSpace=wrap;rounded=0;dashed=1;" vertex="1" parent="1">
          <mxGeometry x="530" y="-250" width="130" height="20" as="geometry" />
        </mxCell>
        <mxCell id="EroGNl9VkCaSBFjSGu0w-68" value="" style="curved=1;endArrow=none;html=1;strokeColor=#b85450;strokeWidth=2;endFill=0;fillColor=#f8cecc;" edge="1" parent="1">
          <mxGeometry width="50" height="50" relative="1" as="geometry">
            <mxPoint x="440" y="-200" as="sourcePoint" />
            <mxPoint x="440" y="-200" as="targetPoint" />
            <Array as="points">
              <mxPoint x="460" y="-180" />
              <mxPoint x="490" y="-180" />
              <mxPoint x="510" y="-190" />
              <mxPoint x="520" y="-220" />
              <mxPoint x="480" y="-250" />
              <mxPoint x="430" y="-230" />
            </Array>
          </mxGeometry>
        </mxCell>
        <mxCell id="EroGNl9VkCaSBFjSGu0w-69" value="&lt;font&gt;&lt;font style=&quot;font-size: 14px&quot;&gt;审批上下文&lt;/font&gt;&lt;br&gt;&lt;/font&gt;" style="text;html=1;strokeColor=none;fillColor=none;align=center;verticalAlign=middle;whiteSpace=wrap;rounded=0;dashed=1;" vertex="1" parent="1">
          <mxGeometry x="410" y="-220" width="130" height="20" as="geometry" />
        </mxCell>
        <mxCell id="EroGNl9VkCaSBFjSGu0w-70" value="&lt;font&gt;&lt;font style=&quot;font-size: 14px&quot;&gt;操作日志上下文&lt;/font&gt;&lt;br&gt;&lt;/font&gt;" style="text;html=1;strokeColor=none;fillColor=none;align=center;verticalAlign=middle;whiteSpace=wrap;rounded=0;dashed=1;" vertex="1" parent="1">
          <mxGeometry x="460" y="-370" width="130" height="20" as="geometry" />
        </mxCell>
        <mxCell id="EroGNl9VkCaSBFjSGu0w-84" value="" style="endArrow=none;html=1;strokeColor=#000000;strokeWidth=2;entryX=1;entryY=0;entryDx=0;entryDy=0;" edge="1" parent="1">
          <mxGeometry width="50" height="50" relative="1" as="geometry">
            <mxPoint x="613" y="-520" as="sourcePoint" />
            <mxPoint x="563" y="-520" as="targetPoint" />
            <Array as="points">
              <mxPoint x="603" y="-520" />
            </Array>
          </mxGeometry>
        </mxCell>
        <mxCell id="EroGNl9VkCaSBFjSGu0w-85" value="" style="endArrow=none;html=1;strokeColor=#000000;strokeWidth=2;" edge="1" parent="1">
          <mxGeometry width="50" height="50" relative="1" as="geometry">
            <mxPoint x="777" y="-450" as="sourcePoint" />
            <mxPoint x="767" y="-480" as="targetPoint" />
          </mxGeometry>
        </mxCell>
        <mxCell id="EroGNl9VkCaSBFjSGu0w-86" value="&lt;font style=&quot;font-size: 14px&quot;&gt;会计科目上下文&lt;br&gt;&lt;/font&gt;" style="text;html=1;strokeColor=none;fillColor=none;align=center;verticalAlign=middle;whiteSpace=wrap;rounded=0;dashed=1;" vertex="1" parent="1">
          <mxGeometry x="210" y="-540" width="110" height="20" as="geometry" />
        </mxCell>
        <mxCell id="EroGNl9VkCaSBFjSGu0w-87" value="" style="curved=1;endArrow=none;html=1;strokeColor=#006EAF;strokeWidth=2;endFill=0;fillColor=#1ba1e2;" edge="1" parent="1">
          <mxGeometry width="50" height="50" relative="1" as="geometry">
            <mxPoint x="20" y="-410" as="sourcePoint" />
            <mxPoint x="20" y="-410" as="targetPoint" />
            <Array as="points">
              <mxPoint x="70" y="-390" />
              <mxPoint x="150" y="-440" />
              <mxPoint x="90" y="-490" />
              <mxPoint x="-10" y="-460" />
            </Array>
          </mxGeometry>
        </mxCell>
        <mxCell id="EroGNl9VkCaSBFjSGu0w-88" value="&lt;font style=&quot;font-size: 14px&quot;&gt;核算项目上下文&lt;br&gt;&lt;/font&gt;" style="text;html=1;strokeColor=none;fillColor=none;align=center;verticalAlign=middle;whiteSpace=wrap;rounded=0;dashed=1;" vertex="1" parent="1">
          <mxGeometry x="10" y="-450" width="110" height="20" as="geometry" />
        </mxCell>
        <mxCell id="EroGNl9VkCaSBFjSGu0w-89" value="&lt;font style=&quot;font-size: 14px&quot;&gt;支付方式上下文&lt;br&gt;&lt;/font&gt;" style="text;html=1;strokeColor=none;fillColor=none;align=center;verticalAlign=middle;whiteSpace=wrap;rounded=0;dashed=1;" vertex="1" parent="1">
          <mxGeometry x="170" y="-300" width="110" height="20" as="geometry" />
        </mxCell>
        <mxCell id="EroGNl9VkCaSBFjSGu0w-90" value="" style="endArrow=none;html=1;strokeColor=#000000;strokeWidth=2;entryX=0;entryY=1;entryDx=0;entryDy=0;" edge="1" parent="1">
          <mxGeometry width="50" height="50" relative="1" as="geometry">
            <mxPoint x="128" y="-460" as="sourcePoint" />
            <mxPoint x="208" y="-520" as="targetPoint" />
          </mxGeometry>
        </mxCell>
        <mxCell id="EroGNl9VkCaSBFjSGu0w-91" value="" style="endArrow=none;html=1;strokeColor=#000000;strokeWidth=2;" edge="1" parent="1">
          <mxGeometry width="50" height="50" relative="1" as="geometry">
            <mxPoint x="250" y="-330" as="sourcePoint" />
            <mxPoint x="260" y="-490" as="targetPoint" />
          </mxGeometry>
        </mxCell>
        <mxCell id="EroGNl9VkCaSBFjSGu0w-92" value="" style="endArrow=none;html=1;strokeColor=#000000;strokeWidth=2;exitX=1;exitY=0.5;exitDx=0;exitDy=0;" edge="1" parent="1">
          <mxGeometry width="50" height="50" relative="1" as="geometry">
            <mxPoint x="320" y="-530" as="sourcePoint" />
            <mxPoint x="439" y="-510" as="targetPoint" />
          </mxGeometry>
        </mxCell>
        <mxCell id="EroGNl9VkCaSBFjSGu0w-93" value="" style="endArrow=none;html=1;strokeColor=#000000;strokeWidth=2;" edge="1" parent="1">
          <mxGeometry width="50" height="50" relative="1" as="geometry">
            <mxPoint x="470" y="-240" as="sourcePoint" />
            <mxPoint x="470" y="-280" as="targetPoint" />
          </mxGeometry>
        </mxCell>
        <mxCell id="EroGNl9VkCaSBFjSGu0w-94" value="" style="endArrow=none;html=1;strokeColor=#000000;strokeWidth=2;" edge="1" parent="1">
          <mxGeometry width="50" height="50" relative="1" as="geometry">
            <mxPoint x="570" y="-269" as="sourcePoint" />
            <mxPoint x="560" y="-299" as="targetPoint" />
          </mxGeometry>
        </mxCell>
        <mxCell id="EroGNl9VkCaSBFjSGu0w-95" value="" style="endArrow=none;html=1;strokeColor=#000000;strokeWidth=2;" edge="1" parent="1">
          <mxGeometry width="50" height="50" relative="1" as="geometry">
            <mxPoint x="690" y="-320" as="sourcePoint" />
            <mxPoint x="660" y="-340" as="targetPoint" />
          </mxGeometry>
        </mxCell>
        <mxCell id="EroGNl9VkCaSBFjSGu0w-96" value="" style="endArrow=none;html=1;strokeColor=#000000;strokeWidth=2;" edge="1" parent="1">
          <mxGeometry width="50" height="50" relative="1" as="geometry">
            <mxPoint x="500" y="-431" as="sourcePoint" />
            <mxPoint x="500" y="-471" as="targetPoint" />
          </mxGeometry>
        </mxCell>
        <mxCell id="EroGNl9VkCaSBFjSGu0w-97" value="" style="endArrow=none;html=1;strokeColor=#000000;strokeWidth=2;" edge="1" parent="1">
          <mxGeometry width="50" height="50" relative="1" as="geometry">
            <mxPoint x="630" y="-430" as="sourcePoint" />
            <mxPoint x="660" y="-480" as="targetPoint" />
          </mxGeometry>
        </mxCell>
        <mxCell id="EroGNl9VkCaSBFjSGu0w-98" value="" style="endArrow=none;html=1;strokeColor=#000000;strokeWidth=2;" edge="1" parent="1">
          <mxGeometry width="50" height="50" relative="1" as="geometry">
            <mxPoint x="705" y="-400" as="sourcePoint" />
            <mxPoint x="765" y="-420" as="targetPoint" />
            <Array as="points">
              <mxPoint x="735" y="-410" />
            </Array>
          </mxGeometry>
        </mxCell>
      </root>
    </mxGraphModel>
  </diagram>
</mxfile>
